<svg width="190" height="165" viewBox="0 0 190 165" fill="none" xmlns="http://www.w3.org/2000/svg">
<g clip-path="url(#clip0_6_574)">
<path fill-rule="evenodd" clip-rule="evenodd" d="M66.1306 32.4903C66.3996 32.0217 66.996 31.8609 67.4625 32.1311L124.512 65.172C124.978 65.4422 125.138 66.0411 124.869 66.5097C124.6 66.9783 124.004 67.1391 123.537 66.8689L66.4882 33.828C66.0216 33.5578 65.8615 32.9589 66.1306 32.4903Z" fill="#845EF7"/>
<path fill-rule="evenodd" clip-rule="evenodd" d="M88.502 18.8749C90.6298 17.6466 93.0433 17 95.5 17C97.9567 17 100.37 17.6466 102.498 18.8749C102.499 18.8752 102.499 18.8756 102.5 18.876L148 44.8813C150.126 46.1091 151.892 47.8745 153.121 50.0004C154.349 52.1264 154.997 54.5381 155 56.9937V109.006C154.997 111.462 154.349 113.874 153.121 116C151.892 118.126 150.126 119.891 148 121.119L147.996 121.121L102.5 147.124C102.5 147.124 102.499 147.124 102.499 147.125C100.371 148.353 97.9571 149 95.5 149C93.0429 149 90.6291 148.353 88.5011 147.125C88.5007 147.124 88.5004 147.124 88.5 147.124L43.0039 121.121L43 121.119C40.8738 119.891 39.1079 118.126 37.8792 116C36.6506 113.874 36.0025 111.462 36 109.006V56.9937C36.0025 54.5381 36.6506 52.1264 37.8792 50.0004C39.1079 47.8745 40.8738 46.1091 43 44.8813L43.0039 44.8791L88.5 18.876C88.5007 18.8756 88.5014 18.8752 88.502 18.8749ZM95.5 19.0004C93.3936 19.0004 91.3242 19.555 89.5 20.6084L89.4961 20.6106L44 46.6137C43.9993 46.6141 43.9986 46.6145 43.998 46.6148C42.1765 47.6672 40.6635 49.18 39.6108 51.0015C38.5577 52.8236 38.0022 54.8907 38 56.9953V109.005C38.0022 111.109 38.5577 113.176 39.6108 114.998C40.6634 116.82 42.1763 118.333 43.9977 119.385C43.9984 119.385 43.9992 119.386 44 119.386L89.5 145.392C91.3242 146.445 93.3936 147 95.5 147C97.6064 147 99.6758 146.445 101.5 145.392L101.504 145.389L147 119.386C147.001 119.386 147.002 119.385 147.002 119.385C148.824 118.333 150.337 116.82 151.389 114.998C152.442 113.176 152.998 111.109 153 109.004V56.9958C152.998 54.891 152.442 52.8238 151.389 51.0015C150.337 49.18 148.824 47.6672 147.002 46.6148C147.001 46.6145 147.001 46.6141 147 46.6137L101.504 20.6106L101.5 20.6084C99.6758 19.555 97.6064 19.0004 95.5 19.0004Z" fill="#845EF7"/>
<path fill-rule="evenodd" clip-rule="evenodd" d="M38.1328 50.4876C38.4058 50.0209 39.0096 49.8614 39.4815 50.1314L95 81.8958L150.518 50.1314C150.99 49.8614 151.594 50.0209 151.867 50.4876C152.14 50.9543 151.979 51.5516 151.507 51.8216L95.4943 83.8688C95.1885 84.0437 94.8115 84.0437 94.5057 83.8688L38.493 51.8216C38.0211 51.5516 37.8598 50.9543 38.1328 50.4876Z" fill="#845EF7"/>
<path fill-rule="evenodd" clip-rule="evenodd" d="M95 82C95.5523 82 96 82.4376 96 82.9775V147.023C96 147.562 95.5523 148 95 148C94.4477 148 94 147.562 94 147.023V82.9775C94 82.4376 94.4477 82 95 82Z" fill="#845EF7"/>
</g>
<defs>
<clipPath id="clip0_6_574">
<rect width="119" height="132" fill="white" transform="translate(36 17)"/>
</clipPath>
</defs>
</svg>
