<svg width="49" height="65" viewBox="0 0 49 65" fill="none" xmlns="http://www.w3.org/2000/svg">
<path d="M48.1611 7.78743H0.838857C0.375856 7.78743 0 8.16198 0 8.62628V63.973C0 64.4373 0.375856 64.8119 0.838857 64.8119H48.1611C48.6241 64.8119 49 64.4373 49 63.973V8.62628C49 8.16198 48.6241 7.78743 48.1611 7.78743Z" fill="#5A27F2"/>
<path d="M42.8985 12.1286H6.74808C6.28508 12.1286 5.90921 12.5045 5.90921 12.9688V57.0852C5.90921 57.5482 6.28508 57.924 6.74808 57.924H42.8985C43.3615 57.924 43.7374 57.5482 43.7374 57.0852V12.9688C43.7374 12.5045 43.3615 12.1286 42.8985 12.1286Z" fill="white"/>
<path d="M38.6004 5.21245H30.4953C30.0843 2.27057 27.5521 -0.000187874 24.501 -0.000187874C21.4473 -0.000187874 18.9163 2.27057 18.5054 5.21245H10.399C9.93466 5.21245 9.55881 5.58833 9.55881 6.05264V15.0057C9.55881 15.4687 9.93466 15.8445 10.399 15.8445H38.6004C39.0647 15.8445 39.4405 15.4687 39.4405 15.0057V6.05264C39.4405 5.58833 39.0647 5.21245 38.6004 5.21245Z" fill="#845EF7"/>
<path d="M15.1643 21.2327C15.1643 22.4799 14.1524 23.4904 12.9052 23.4904C11.658 23.4904 10.6474 22.4799 10.6474 21.2327C10.6474 19.9854 11.658 18.9736 12.9052 18.9736C14.1524 18.9736 15.1643 19.9854 15.1643 21.2327Z" fill="#ADB5BD"/>
<path d="M37.3231 22.0712H19.0606C18.5976 22.0712 18.2218 21.6954 18.2218 21.2324C18.2218 20.7681 18.5976 20.3922 19.0606 20.3922H37.3231C37.7861 20.3922 38.162 20.7681 38.162 21.2324C38.162 21.6954 37.7861 22.0712 37.3231 22.0712Z" fill="#5A27F2"/>
<path d="M15.1643 28.5473C15.1643 29.7945 14.1524 30.8051 12.9052 30.8051C11.658 30.8051 10.6474 29.7945 10.6474 28.5473C10.6474 27.3001 11.658 26.2895 12.9052 26.2895C14.1524 26.2895 15.1643 27.3001 15.1643 28.5473Z" fill="#ADB5BD"/>
<path d="M37.3231 29.3872H19.0606C18.5976 29.3872 18.2218 29.0113 18.2218 28.547C18.2218 28.084 18.5976 27.7082 19.0606 27.7082H37.3231C37.7861 27.7082 38.162 28.084 38.162 28.547C38.162 29.0113 37.7861 29.3872 37.3231 29.3872Z" fill="#5A27F2"/>
<path d="M15.1643 35.863C15.1643 37.1103 14.1524 38.1208 12.9052 38.1208C11.658 38.1208 10.6474 37.1103 10.6474 35.863C10.6474 34.6158 11.658 33.6039 12.9052 33.6039C14.1524 33.6039 15.1643 34.6158 15.1643 35.863Z" fill="#ADB5BD"/>
<path d="M37.3231 36.7012H19.0606C18.5976 36.7012 18.2218 36.3253 18.2218 35.8623C18.2218 35.398 18.5976 35.0222 19.0606 35.0222H37.3231C37.7861 35.0222 38.162 35.398 38.162 35.8623C38.162 36.3253 37.7861 36.7012 37.3231 36.7012Z" fill="#5A27F2"/>
<path d="M15.1643 43.177C15.1643 44.4242 14.1524 45.4348 12.9052 45.4348C11.658 45.4348 10.6474 44.4242 10.6474 43.177C10.6474 41.9298 11.658 40.9192 12.9052 40.9192C14.1524 40.9192 15.1643 41.9298 15.1643 43.177Z" fill="#ADB5BD"/>
<path d="M37.3231 44.0169H19.0606C18.5976 44.0169 18.2218 43.641 18.2218 43.1767C18.2218 42.7137 18.5976 42.3379 19.0606 42.3379H37.3231C37.7861 42.3379 38.162 42.7137 38.162 43.1767C38.162 43.641 37.7861 44.0169 37.3231 44.0169Z" fill="#5A27F2"/>
</svg>
