<svg width="64" height="31" viewBox="0 0 64 31" fill="none" xmlns="http://www.w3.org/2000/svg">
<path d="M63.8807 6.58965C63.5513 4.96603 62.5368 3.56337 61.0983 2.74142L60.9439 2.65389C57.3654 0.60968 53.0767 0.20191 49.1767 1.53732L49.1584 1.54371L13.8292 15.9194C13.2146 16.1702 12.5115 15.8959 12.2284 15.2949L10.7302 12.1192L10.7094 12.0786C10.1219 11.0207 8.92971 10.4731 7.74382 10.7186C6.25686 11.0261 5.2978 12.4874 5.60553 13.9734L6.94404 20.4446C7.4782 23.0278 9.78326 24.8262 12.3339 24.8262C12.6751 24.8262 13.0203 24.7941 13.3664 24.727L51.7308 17.3327C56.112 16.9431 60.1513 14.7163 62.8183 11.2182C63.8228 9.90095 64.2101 8.21328 63.8807 6.58965Z" fill="#D3D7DB"/>
<path d="M63.4103 5.20408L63.1521 4.67567L29.5806 14.9309L7.29919 21.751L7.85795 22.5312C8.90082 23.9852 10.5833 24.8262 12.3338 24.8262C12.677 24.8262 13.0227 24.7941 13.3667 24.727L51.7311 17.3327C56.1123 16.9431 60.1516 14.7163 62.8186 11.2182C64.1454 9.47716 64.3718 7.17356 63.4103 5.20408Z" fill="#ADB5BD"/>
<path d="M46.417 10.1347L15.1305 0.200815C13.9746 -0.166395 12.712 -0.0254917 11.6642 0.585103C10.6175 1.19676 9.87492 2.22794 9.62682 3.41497C9.54717 3.79499 9.7148 4.18248 10.045 4.38637L29.5631 16.3719C29.7091 16.4616 29.8758 16.5075 30.0439 16.5075C30.1282 16.5075 30.2128 16.4958 30.2949 16.4733L46.3903 11.8939C46.7803 11.7829 47.0513 11.4296 47.0575 11.0239C47.0638 10.6204 46.8032 10.2585 46.417 10.1347Z" fill="#845EF7"/>
<path d="M63.3786 5.14214C62.8715 4.13338 62.0825 3.30396 61.0981 2.7414L60.9438 2.65387C58.3785 1.18824 55.4668 0.554156 52.5245 0.823159C52.3081 0.841306 52.1143 0.963 52 1.14661C51.8866 1.33128 51.8661 1.55972 51.9457 1.76147L51.9621 1.80203C51.9632 1.80524 51.9645 1.8095 51.9662 1.81271L54.4547 7.80763C54.5636 8.07023 54.8184 8.23248 55.0906 8.23248C55.1511 8.23248 55.212 8.22395 55.2721 8.20793L62.9445 6.11568C63.1443 6.06124 63.3081 5.92033 63.3928 5.73139C63.4766 5.54352 63.4711 5.32682 63.3786 5.14214Z" fill="#5A27F2"/>
<path d="M10.263 30.5098C9.94696 30.5098 9.66257 30.2909 9.59086 29.9694C9.50871 29.5992 9.74264 29.2309 10.1141 29.1488L19.4533 27.0727C19.8248 26.9892 20.1922 27.224 20.2752 27.5955C20.3573 27.9671 20.1234 28.334 19.7522 28.4166L10.4131 30.4936C10.3631 30.5044 10.3127 30.5098 10.263 30.5098Z" fill="#5A27F2"/>
<path d="M0.688189 24.5777C0.372953 24.5777 0.0885717 24.36 0.0168515 24.0385C-0.0665447 23.6669 0.167798 23.2988 0.538497 23.2154L15.4255 19.887C15.7971 19.8041 16.1649 20.0375 16.2478 20.4078C16.3313 20.7806 16.0973 21.1489 15.7262 21.2322L0.839556 24.5605C0.789097 24.5723 0.738232 24.5777 0.688189 24.5777Z" fill="#5A27F2"/>
<path d="M38.8097 13.9477L10.6055 2.74994C10.1618 2.57274 9.65727 2.76381 9.44336 3.1908C9.22902 3.61672 9.37664 4.13551 9.78319 4.38637L29.3013 16.3719C29.4472 16.4616 29.6139 16.5075 29.7821 16.5075C29.8663 16.5075 29.951 16.4958 30.033 16.4733L38.8097 13.9477Z" fill="#5A27F2"/>
</svg>
