<svg width="64" height="63" viewBox="0 0 64 63" fill="none" xmlns="http://www.w3.org/2000/svg">
<path d="M51.0562 11.7665C45.406 6.11758 37.8959 3.00673 29.9087 3.00673C21.9201 3.00673 14.41 6.11758 8.76109 11.7665C3.11082 17.4153 0 24.9254 0 32.914C0 40.9012 3.11082 48.4127 8.76109 54.0616C14.41 59.7105 21.9201 62.8213 29.9087 62.8213C37.8959 62.8213 45.406 59.7105 51.0562 54.0616C56.7051 48.4127 59.816 40.9012 59.816 32.914C59.816 24.9254 56.7051 17.4153 51.0562 11.7665Z" fill="#845EF7"/>
<path d="M60.0509 30.2067C59.2562 25.3123 58.3006 21.8811 55.2896 16.7121C54.1745 14.7982 52.7918 13.0035 50.2399 12.8357L44.3289 12.446C42.6022 12.3322 40.9379 12.9009 39.6384 14.0451C38.3416 15.1879 37.5677 16.7704 37.4637 18.4971L37.1169 24.2555C37.0185 25.874 37.5303 27.4592 38.5538 28.7172C39.5773 29.9765 41.0266 30.7975 42.6313 31.0305L44.2984 31.2719C45.8725 31.5007 47.2039 32.4965 47.8669 33.943L50.8238 43.1147C50.8321 43.1466 50.8446 43.1771 50.8584 43.2062C51.2177 44.0092 51.9846 44.5196 52.8639 44.5363C52.8806 44.5363 52.8972 44.5363 52.9125 44.5363C53.7724 44.5363 54.5393 44.0633 54.9235 43.2894C55.3479 42.4337 56.0053 41.5905 56.7015 40.6987C58.5641 38.309 60.8844 35.3341 60.0509 30.2067Z" fill="#D3D7DB"/>
<path d="M33.9098 3.45053C33.8044 3.1038 33.4993 2.85415 33.1401 2.81948C32.9778 2.80422 29.1735 2.44502 26.6299 2.82503C26.3276 2.8708 26.0696 3.06635 25.9448 3.34512C25.5357 4.25771 24.6661 6.50726 25.4191 7.66949C25.7104 8.11885 26.1875 8.36572 26.7617 8.36572C28.6215 8.36572 32.4799 5.33395 33.6185 4.40333C33.9001 4.17449 34.0138 3.79864 33.9098 3.45053Z" fill="#D3D7DB"/>
<path d="M26.9145 40.9749C27.5219 39.7613 27.4581 38.3481 26.7453 37.1928C26.0324 36.0389 24.7953 35.3482 23.4389 35.3482H20.3197C20.102 35.3482 19.8856 35.3149 19.6789 35.247L12.3616 32.8934C11.2257 32.5272 10.0053 32.6978 9.01224 33.3621C8.01921 34.0237 7.39512 35.0874 7.29804 36.276L6.8653 41.5657C6.75435 42.929 7.37985 44.2674 8.49909 45.0566L11.8859 47.4476C12.2645 47.7139 12.5475 48.1064 12.6834 48.5488L13.8609 52.4058C14.1452 53.3392 14.7665 54.1255 15.607 54.6193L21.733 58.2252C22.1046 58.443 22.5082 58.5498 22.9077 58.5498C23.4555 58.5498 23.9964 58.3473 24.436 57.9506C25.1961 57.2669 25.4138 56.2225 24.9908 55.2919L22.9104 50.7165C22.6469 50.1382 22.6594 49.4794 22.9437 48.9108L26.9145 40.9749Z" fill="#ADB5BD"/>
<path d="M22.1024 11.4337C20.6725 10.148 19.1316 11.0897 17.8931 11.8456C17.0665 12.3504 16.2121 12.8733 15.3786 12.8816C15.3162 12.8816 15.2607 12.8802 15.2122 12.8788C15.4549 12.4489 15.9986 11.7818 16.3245 11.3837C16.4771 11.1951 16.6268 11.012 16.7669 10.8345C17.674 9.68477 18.4714 7.52535 17.6088 6.46576C17.4423 6.25911 16.8085 5.63361 15.6643 6.20363C14.197 6.93453 5.99896 12.3033 2.45125 20.1656C0.927038 23.5386 1.61774 27.1681 4.44703 30.6645C6.50659 33.2067 8.95865 34.7753 9.06267 34.8405C9.20968 34.9348 9.3761 34.9806 9.54114 34.9806C9.77553 34.9806 10.0085 34.8877 10.1819 34.7102C10.4773 34.4078 10.5203 33.939 10.2845 33.5867C9.57857 32.5313 9.7561 32.0473 10.0792 31.168C10.2998 30.5674 10.573 29.8213 10.4939 28.8602C10.4385 28.1889 10.2401 27.6549 9.98772 27.2153C11.057 27.899 11.9946 28.3997 12.7823 28.1639C13.8364 27.8491 14.3468 26.3845 15.0541 24.3555C15.4674 23.1655 15.9375 21.8161 16.4618 21.0311C17.0498 20.1518 17.6227 20.1046 18.6642 20.0214C19.3605 19.9645 20.1482 19.9007 21.0206 19.5374C22.1579 19.063 23.0066 17.7774 23.2937 16.0951C23.6155 14.2047 23.1495 12.3754 22.1024 11.4337Z" fill="#ADB5BD"/>
<path d="M51.4762 24.0156C50.9825 24.0156 50.5817 23.6148 50.5817 23.1196V0.894421C50.5817 0.399296 50.9825 -0.000127792 51.4762 -0.000127792C51.9713 -0.000127792 52.3722 0.399296 52.3722 0.894421V23.1196C52.3722 23.6148 51.9713 24.0156 51.4762 24.0156Z" fill="white"/>
<path d="M60.5757 4.95406L63.7628 1.50205C64.0042 1.23992 64.0666 0.8613 63.9251 0.535377C63.7809 0.21084 63.4605 3.14713e-05 63.1041 3.14713e-05H51.4762C50.9825 3.14713e-05 50.5817 0.399455 50.5817 0.894581V9.01494C50.5817 9.51006 50.9825 9.90948 51.4762 9.90948H63.1041C63.4605 9.90948 63.7809 9.69868 63.9251 9.37414C64.0666 9.04822 64.0042 8.66959 63.7628 8.40747L60.5757 4.95406Z" fill="#5A27F2"/>
<path d="M8.76079 17.8953L22.8684 42.9235L26.0361 41.4173L49.6455 29.1418L47.5332 25.5275L9.51113 16.3975L8.76079 17.8953ZM22.4995 44.9872C22.1847 44.9872 21.8824 44.8221 21.7187 44.5309L6.96892 18.3585C6.8219 18.0992 6.8136 17.7844 6.94813 17.5181L8.23102 14.9592C8.41548 14.5875 8.83432 14.3934 9.2393 14.4905L48.321 23.877C48.5581 23.9339 48.7606 24.0837 48.8841 24.2945L51.6662 29.0502C51.7896 29.2624 51.8215 29.5148 51.7549 29.7506C51.6856 29.9864 51.5233 30.1833 51.3056 30.297L26.8475 43.0136C26.8378 43.0178 26.8281 43.0233 26.8184 43.0275L22.8837 44.8984C22.7589 44.9581 22.6299 44.9872 22.4995 44.9872Z" fill="white"/>
<path d="M5.83856 10.9757C3.42118 10.9757 1.45453 12.9437 1.45453 15.3611C1.45453 17.7785 3.42118 19.7451 5.83856 19.7451C8.25594 19.7451 10.2239 17.7785 10.2239 15.3611C10.2239 12.9437 8.25594 10.9757 5.83856 10.9757Z" fill="#5A27F2"/>
<path d="M50.8935 21.9256C48.4747 21.9256 46.5081 23.8937 46.5081 26.3111C46.5081 28.7284 48.4747 30.6951 50.8935 30.6951C53.3123 30.6951 55.2789 28.7284 55.2789 26.3111C55.2789 23.8937 53.3123 21.9256 50.8935 21.9256Z" fill="#5A27F2"/>
<path d="M23.8489 39.7057C21.4315 39.7057 19.4649 41.6737 19.4649 44.0911C19.4649 46.5085 21.4315 48.4752 23.8489 48.4752C26.2677 48.4752 28.2343 46.5085 28.2343 44.0911C28.2343 41.6737 26.2677 39.7057 23.8489 39.7057Z" fill="#5A27F2"/>
</svg>
