<svg width="64" height="64" viewBox="0 0 64 64" fill="none" xmlns="http://www.w3.org/2000/svg">
<path d="M53.5098 37.0337C53.5098 37.4453 53.4997 37.8554 53.4814 38.2627C53.2135 44.2458 50.9863 49.8731 47.1067 54.403C46.6519 54.9346 46.174 55.4519 45.6727 55.952C45.5588 56.0663 45.4444 56.1792 45.3272 56.2893C42.3029 59.213 38.7059 61.3393 34.794 62.5668H34.7929C33.5454 62.9569 32.2631 63.257 30.9592 63.4613H30.9581C29.9791 63.6157 28.9865 63.7157 27.9841 63.76C27.5759 63.7786 27.1663 63.7886 26.7548 63.7886C26.3429 63.7886 25.9332 63.7786 25.5252 63.76C24.6655 63.7214 23.8131 63.6428 22.9715 63.5228C21.6865 63.3441 20.4233 63.0712 19.1914 62.7083H19.1897C15.0679 61.5022 11.2823 59.303 8.12291 56.2335C8.02746 56.1406 7.93086 56.0463 7.83712 55.952C7.32568 55.4419 6.83897 54.9132 6.37569 54.3702C2.51358 49.8474 0.296372 44.2315 0.0284375 38.2627C0.00943202 37.8554 0 37.4453 0 37.0337C0 36.6208 0.00943202 36.212 0.0284375 35.8034C0.293085 29.9002 2.46442 24.3429 6.2478 19.8459C6.74966 19.25 7.27938 18.6727 7.83712 18.114C7.8917 18.0597 7.947 18.0054 8.0023 17.9511C11.0568 14.9459 14.709 12.7624 18.6878 11.5092C19.9599 11.1091 21.2623 10.8047 22.5914 10.6004H22.5918C23.5575 10.4475 24.5366 10.3517 25.5252 10.306C25.9332 10.2889 26.3429 10.2789 26.7548 10.2789C27.1663 10.2789 27.5759 10.2889 27.9841 10.306C29.1194 10.3575 30.242 10.4789 31.3466 10.669C32.6953 10.9005 34.0181 11.2349 35.3053 11.6693C39.119 12.9496 42.6171 15.0931 45.5588 18.0025C45.5968 18.0411 45.6347 18.0769 45.6727 18.114C46.2387 18.6813 46.7758 19.2672 47.2836 19.8745C51.0543 24.3658 53.2168 29.9117 53.4814 35.8034C53.4997 36.212 53.5098 36.6208 53.5098 37.0337Z" fill="#5A27F2"/>
<path d="M45.6741 55.952C50.7274 50.8991 53.5106 44.1801 53.5106 37.0337C53.5106 29.886 50.7274 23.1683 45.6741 18.114C40.6213 13.0611 33.9017 10.2789 26.7556 10.2789V63.7886C33.9017 63.7886 40.6213 61.0049 45.6741 55.952Z" fill="#845EF7"/>
<path d="M27.9833 10.306V63.76C27.5752 63.7786 27.1655 63.7886 26.7541 63.7886C26.3421 63.7886 25.9324 63.7786 25.5245 63.76V10.306C25.9324 10.2889 26.3421 10.2789 26.7541 10.2789C27.1655 10.2789 27.5752 10.2889 27.9833 10.306Z" fill="white"/>
<path d="M53.5098 37.0338C53.5098 37.4453 53.4997 37.8554 53.4814 38.2627H0.0284375C0.00943202 37.8554 0 37.4453 0 37.0338L0.0284375 35.8034H53.4814C53.4997 36.2121 53.5098 36.6208 53.5098 37.0338Z" fill="white"/>
<path d="M22.9718 63.5227C21.6868 63.3441 20.4236 63.0712 19.1917 62.7082H19.19C17.0202 59.8188 15.2201 56.8751 13.7977 53.8899V53.8885C13.4405 53.1369 13.1056 52.3852 12.7974 51.6279C11.7007 48.9542 10.9057 46.2492 10.4152 43.5227C10.1002 41.7779 9.91215 40.0217 9.84856 38.2626C9.81784 37.4438 9.81398 36.6235 9.83899 35.8033C9.94059 32.2737 10.5435 28.7356 11.6425 25.2217C11.9513 24.2343 12.2878 23.2825 12.6462 22.3694C12.9543 21.5806 13.2781 20.8204 13.6108 20.0902C15.267 16.4592 17.1687 13.5469 18.6881 11.5092C19.9602 11.109 21.2626 10.8047 22.5917 10.6003C21.9558 11.3234 20.8936 12.608 19.6857 14.3643C18.5106 16.0776 17.1977 18.2397 16.0122 20.7747C15.6682 21.5063 15.3361 22.2694 15.0219 23.0596C14.6395 24.0142 14.2828 25.0102 13.9619 26.0476C12.956 29.29 12.4 32.5524 12.299 35.8033C12.2734 36.625 12.2767 37.4438 12.3091 38.2626C12.3733 39.8974 12.5525 41.5278 12.846 43.1483C13.32 45.7605 14.0958 48.3555 15.1687 50.9277C15.4852 51.6879 15.8284 52.4481 16.1974 53.2026C17.9056 56.7022 20.168 60.1517 22.9718 63.5227Z" fill="white"/>
<path d="M44.0284 38.2629C43.9648 40.022 43.7766 41.7782 43.4618 43.5229C42.9511 46.368 42.1071 49.1903 40.9349 51.9768C40.6178 52.7342 40.2767 53.4872 39.9106 54.2375C38.5391 57.054 36.8327 59.8348 34.7936 62.567H34.7924C33.5449 62.9571 32.2627 63.2572 30.9587 63.4615C33.6454 60.222 35.833 56.9097 37.5086 53.5501C37.8854 52.7971 38.236 52.0411 38.5586 51.2823C39.7085 48.5944 40.5341 45.8794 41.0309 43.1486C41.3244 41.5281 41.5036 39.8976 41.5678 38.2629C41.6002 37.4441 41.6035 36.6252 41.5779 35.8036C41.4769 32.5526 40.9215 29.2903 39.915 26.0479C39.6137 25.0762 39.2809 24.1374 38.9265 23.2385C38.6161 22.4483 38.2884 21.6867 37.9502 20.955C35.5672 15.8064 32.6501 12.1639 31.3461 10.6692C32.6948 10.9007 34.0176 11.2351 35.3048 11.6695C36.8254 13.7244 38.7021 16.6295 40.3297 20.2319C40.6591 20.9607 40.9789 21.7181 41.2826 22.5041C41.6208 23.3772 41.9408 24.2831 42.2343 25.222C43.334 28.7359 43.9363 32.274 44.0378 35.8036C44.0624 36.6238 44.0591 37.4441 44.0284 38.2629Z" fill="white"/>
<path d="M47.2839 19.8743C45.3465 20.9146 43.343 21.7921 41.2833 22.5037C40.5063 22.7723 39.7204 23.0181 38.9272 23.2382C36.8457 23.8183 34.7105 24.2327 32.5348 24.4799C31.0376 24.65 29.5193 24.74 27.9843 24.7515C27.8666 24.7543 27.7471 24.7543 27.6282 24.7543C27.3373 24.7543 27.0465 24.7515 26.7551 24.7443C26.3471 24.7372 25.9357 24.7243 25.5255 24.7057C23.301 24.6028 21.0482 24.3385 18.7818 23.9126C17.4511 23.6626 16.1929 23.3711 15.0219 23.0595C14.1846 22.8381 13.3914 22.6051 12.6462 22.3693C9.65932 21.4248 7.4371 20.4274 6.24805 19.8458C6.74991 19.2499 7.27963 18.6726 7.83736 18.1139C7.89195 18.0596 7.94725 18.0052 8.00255 17.9509C8.56186 18.2096 9.2652 18.5182 10.0957 18.8469C11.0944 19.2427 12.2761 19.6729 13.6107 20.0901C14.3637 20.3245 15.1653 20.556 16.0121 20.7746C17.052 21.0433 18.1572 21.2933 19.3188 21.5105C21.4048 21.9006 23.4786 22.1436 25.5255 22.2436C25.9357 22.2636 26.3471 22.2779 26.7551 22.285C27.1659 22.2936 27.5762 22.2965 27.9843 22.2922C29.444 22.2808 30.8869 22.1936 32.3091 22.0293C34.2277 21.8092 36.1117 21.4505 37.9509 20.9547C38.7524 20.7403 39.5462 20.4974 40.3304 20.2316C42.1207 19.6214 43.8656 18.8769 45.5591 18.0024C45.5971 18.041 45.635 18.0767 45.673 18.1139C46.239 18.6812 46.776 19.267 47.2839 19.8743Z" fill="white"/>
<path d="M8.12326 56.2333C9.95793 55.2958 11.8525 54.5142 13.7977 53.8897V53.8883C14.5894 53.6339 15.3892 53.4039 16.1974 53.2038C17.8336 52.7908 19.5042 52.4893 21.2012 52.2936C22.6234 52.1292 24.0658 52.0421 25.5256 52.0321C26.3405 52.0221 27.161 52.0406 27.9844 52.0807C30.0324 52.1778 32.1056 52.4236 34.1909 52.8123C35.3571 53.0281 36.4667 53.2796 37.5094 53.5497C38.3557 53.7697 39.1572 54.0012 39.9114 54.237C42.2351 54.9643 44.0933 55.7288 45.3275 56.289C45.4447 56.179 45.5592 56.0661 45.6731 55.9517C46.1744 55.4516 46.6522 54.9343 47.1071 54.4028C45.8959 53.8154 43.7629 52.8752 40.9357 51.9763C40.1905 51.7391 39.3978 51.5048 38.5595 51.2818C37.3671 50.9632 36.086 50.6674 34.7279 50.4101C32.4623 49.9843 30.2088 49.72 27.9844 49.6185C27.161 49.5814 26.3405 49.5642 25.5256 49.5714C23.9905 49.5828 22.4722 49.6742 20.974 49.8428C19.0018 50.0672 17.0655 50.4302 15.1687 50.9275C14.3716 51.1361 13.5795 51.3704 12.7975 51.6276C10.5904 52.3536 8.4452 53.2681 6.37604 54.3699L8.12326 56.2333Z" fill="white"/>
<path d="M63.8873 18.6144C63.6868 18.1785 63.2504 17.8984 62.7702 17.8984H55.8704V1.28222C55.8704 0.603447 55.3201 0.0532761 54.6402 0.0532761H44.2203C43.541 0.0532761 42.9901 0.603447 42.9901 1.28222V17.8984H36.0895C35.6163 17.8984 35.1847 18.1714 34.9805 18.5986C34.7767 19.0259 34.8359 19.5332 35.1334 19.9004L48.0696 35.9193C48.2991 36.2037 48.6423 36.3709 49.008 36.3766C49.0141 36.3766 49.0197 36.3766 49.0264 36.3766C49.3842 36.3766 49.7252 36.2194 49.9591 35.9465L63.7031 19.929C64.0162 19.5646 64.0882 19.0516 63.8873 18.6144Z" fill="#D3D7DB"/>
<path d="M48.8381 -1.90735e-05H44.2208C43.5119 -1.90735e-05 42.9374 0.574429 42.9374 1.28177V17.8451H36.09C35.596 17.8451 35.1456 18.1295 34.933 18.5753C34.7192 19.0212 34.7822 19.5499 35.0926 19.9343L48.0087 35.9289C48.2196 36.1904 48.5194 36.3504 48.8381 36.3933V-1.90735e-05Z" fill="#ADB5BD"/>
</svg>
