<svg width="62" height="65" viewBox="0 0 62 65" fill="none" xmlns="http://www.w3.org/2000/svg">
<path d="M55.2366 8.39713H14.3713C10.6419 8.39713 7.60907 11.43 7.60907 15.1589V63.4442C7.60907 64.0131 8.06852 64.4738 8.63681 64.4738H60.9721C61.5394 64.4738 62 64.0131 62 63.4442V15.1589C62 11.43 58.9673 8.39713 55.2366 8.39713Z" fill="#845EF7"/>
<path d="M15.5943 10.4352C14.8373 10.4352 14.2236 9.82217 14.2236 9.06519V1.3708C14.2236 0.613828 14.8373 0.000116348 15.5943 0.000116348C16.3525 0.000116348 16.9664 0.613828 16.9664 1.3708V9.06519C16.9664 9.82217 16.3525 10.4352 15.5943 10.4352Z" fill="#5A27F2"/>
<path d="M54.3083 10.4352C53.5514 10.4352 52.9378 9.82217 52.9378 9.06519V1.3708C52.9378 0.613828 53.5514 0.000116348 54.3083 0.000116348C55.0653 0.000116348 55.6789 0.613828 55.6789 1.3708V9.06519C55.6789 9.82217 55.0653 10.4352 54.3083 10.4352Z" fill="#5A27F2"/>
<path d="M43.7737 50.7048H25.5855V36.9454H43.7737V50.7048Z" fill="white"/>
<path d="M25.5854 50.7048H7.39911V36.9454H25.5854V50.7048Z" fill="#5A27F2"/>
<path d="M43.8981 36.9456H25.7115V23.1861H43.8981V36.9456Z" fill="#5A27F2"/>
<path d="M43.8981 64.4644H25.7115V50.705H43.8981V64.4644Z" fill="#5A27F2"/>
<path d="M61.9268 50.7048H43.7402V36.9454H61.9268V50.7048Z" fill="#5A27F2"/>
<path d="M44.6156 31.7408L38.5072 25.6321C38.3143 25.4398 38.0514 25.3314 37.7789 25.3314C37.5064 25.3314 37.245 25.4398 37.0522 25.6321L16.5807 46.1041L7.32068 36.8435C6.91861 36.4421 6.26681 36.4421 5.86522 36.8435L0.300557 42.4069C0.107728 42.6011 0 42.8627 0 43.1353C0 43.408 0.107728 43.6687 0.300557 43.8636L16.3975 59.9593C16.598 60.1598 16.8619 60.2606 17.1254 60.2606C17.3883 60.2606 17.6513 60.1598 17.8521 59.9593L44.6156 33.1957C45.0172 32.7941 45.0172 32.1423 44.6156 31.7408Z" fill="#D3D7DB"/>
<path d="M16.8483 46.0846C16.7737 46.1008 16.7002 46.1233 16.6291 46.1531L7.32073 36.8434C6.91865 36.442 6.26686 36.442 5.86526 36.8434L0.300599 42.4068C-0.1002 42.8084 -0.1002 43.4619 0.300599 43.8635L16.3173 59.8796C16.4655 60.0258 16.651 60.123 16.8483 60.1616V46.0846Z" fill="#ADB5BD"/>
<path d="M55.2366 8.39668H14.3713C10.6419 8.39668 7.60907 11.4295 7.60907 15.1585V22.4207C7.60907 22.9896 8.06852 23.4503 8.63681 23.4503H60.9721C61.5394 23.4503 62 22.9896 62 22.4207V15.1585C62 11.4295 58.9673 8.39668 55.2366 8.39668Z" fill="#D3D7DB"/>
</svg>
