<svg width="64" height="68" viewBox="0 0 64 68" fill="none" xmlns="http://www.w3.org/2000/svg">
<path d="M17.2816 20.7677C16.9178 20.5408 16.4628 20.5176 16.0771 20.7041L0.699012 28.2059C0.271019 28.414 0 28.8477 0 29.3232V66.7051C0 67.1343 0.2213 67.5333 0.585549 67.7602C0.786031 67.886 1.0147 67.9496 1.24453 67.9496C1.43026 67.9496 1.61716 67.9077 1.78931 67.8238L17.168 60.322C17.5953 60.1139 17.8656 59.6803 17.8656 59.2047V21.8229C17.8656 21.3936 17.6459 20.9946 17.2816 20.7677Z" fill="#5A27F2"/>
<path d="M48.0366 20.7677C47.6724 20.5408 47.2171 20.5176 46.8326 20.7041L31.4532 28.2059C31.0268 28.414 30.7565 28.8477 30.7565 29.3232V66.7051C30.7565 67.1343 30.9762 67.5333 31.3404 67.7602C31.5413 67.886 31.7697 67.9496 31.9996 67.9496C32.186 67.9496 32.3725 67.9077 32.5445 67.8238L47.9225 60.322C48.3503 60.1139 48.6206 59.6803 48.6206 59.2047V21.8229C48.6206 21.3936 48.4009 20.9946 48.0366 20.7677Z" fill="#5A27F2"/>
<path d="M46.2072 14.1321C46.2072 6.32673 39.8805 5.72205e-05 32.0766 5.72205e-05C24.2727 5.72205e-05 17.9461 6.32673 17.9461 14.1321C17.9461 14.1321 17.5948 28.345 32.0766 42.8268C46.5584 28.345 46.2072 14.1321 46.2072 14.1321Z" fill="#D3D7DB"/>
<path d="M63.3005 28.2059L47.9226 20.7041C47.7505 20.6203 47.5641 20.5812 47.3776 20.5812V60.5894L62.2107 67.8238C62.3827 67.9077 62.5691 67.9496 62.7556 67.9496C62.9854 67.9496 63.2138 67.886 63.4147 67.7602C63.779 67.5333 64.0001 67.1343 64.0001 66.7051V29.3232C64.0001 28.8477 63.7284 28.414 63.3005 28.2059Z" fill="#845EF7"/>
<path d="M31.9998 27.9399L17.1673 20.7041C17.0961 20.6709 17.0238 20.6448 16.95 20.626V60.4998L31.4534 67.8238C31.6269 67.9077 31.8134 67.9496 31.9998 67.9496V27.9399Z" fill="#845EF7"/>
<path d="M32.2819 0.00295258C32.2139 0.00150681 32.1446 5.72205e-05 32.0766 5.72205e-05C24.2727 5.72205e-05 17.9461 6.32673 17.9461 14.1321C17.9461 14.1321 17.5948 28.345 32.0766 42.8268C32.146 42.7575 32.2139 42.6881 32.2819 42.6173V0.00295258Z" fill="#ADB5BD"/>
<path d="M37.849 14.1001C37.849 17.2888 35.2646 19.8746 32.076 19.8746C28.8873 19.8746 26.3015 17.2888 26.3015 14.1001C26.3015 10.9115 28.8873 8.32707 32.076 8.32707C35.2646 8.32707 37.849 10.9115 37.849 14.1001Z" fill="white"/>
</svg>
