<svg width="63" height="64" viewBox="0 0 63 64" fill="none" xmlns="http://www.w3.org/2000/svg">
<path d="M50.5 31.7346H45.3221C44.9443 31.7346 44.6377 32.0413 44.6377 32.4201C44.6377 39.4485 38.9207 45.1655 31.8923 45.1655C24.8649 45.1655 19.148 39.4485 19.148 32.4201C19.148 32.0413 18.8403 31.7346 18.4625 31.7346H13.2846C12.9069 31.7346 12.6002 32.0413 12.6002 32.4201C12.6002 43.0582 21.2542 51.7122 31.8923 51.7122C42.5315 51.7122 51.1854 43.0582 51.1854 32.4201C51.1854 32.0413 50.8788 31.7346 50.5 31.7346Z" fill="#ADB5BD"/>
<path d="M40.889 15.9963L32.3135 9.30846C32.1077 9.14718 31.8276 9.11851 31.592 9.2331C31.3565 9.34769 31.2079 9.58644 31.2079 9.84852V13.4508C20.886 13.8115 12.6002 22.3223 12.6002 32.7312C12.6002 33.1089 12.9069 33.4156 13.2846 33.4156H18.4625C18.8403 33.4156 19.148 33.1089 19.148 32.7312C19.148 25.933 24.4978 20.3604 31.2079 20.0039V23.2252C31.2079 23.4873 31.3565 23.725 31.592 23.8406C31.8276 23.9552 32.1077 23.9266 32.3135 23.7653L40.889 17.0764C41.0545 16.947 41.1521 16.7475 41.1521 16.5363C41.1521 16.3252 41.0545 16.1257 40.889 15.9963Z" fill="#845EF7"/>
<path d="M31.3471 35.9876H25.2917V34.5043L27.3289 32.4437C27.9103 31.8347 28.2913 31.4187 28.4706 31.1959C28.6488 30.9731 28.773 30.7831 28.8441 30.6219C28.9141 30.4627 28.9491 30.2961 28.9491 30.121C28.9491 29.9035 28.8791 29.7317 28.738 29.6064C28.5968 29.4812 28.3995 29.4186 28.1448 29.4186C27.8827 29.4186 27.6175 29.494 27.349 29.6446C27.0806 29.7942 26.7771 30.016 26.4387 30.3088L25.1993 28.8584C25.6301 28.4754 25.9909 28.1995 26.2837 28.034C26.5776 27.8684 26.896 27.7422 27.2408 27.6552C27.5846 27.5671 27.9719 27.5236 28.4016 27.5236C28.9417 27.5236 29.4245 27.6191 29.8489 27.809C30.2722 28 30.6022 28.2706 30.8357 28.6228C31.0691 28.9751 31.1869 29.3688 31.1869 29.807C31.1869 30.1338 31.1455 30.4362 31.0638 30.7142C30.9821 30.9922 30.8558 31.2649 30.685 31.5333C30.5131 31.8018 30.286 32.0829 30.0027 32.38C29.7194 32.6782 29.1146 33.2405 28.1905 34.0692V34.1265H31.3471V35.9876Z" fill="#5A27F2"/>
<path d="M35.318 32.6888V31.719C35.318 31.5365 35.3254 31.2893 35.3382 30.9794C35.3509 30.6696 35.3626 30.5062 35.37 30.4913H35.3063C35.1769 30.7842 35.0305 31.058 34.8671 31.3137L33.9429 32.6888H35.318ZM38.463 34.3738H37.5441V35.9876H35.318V34.3738H31.9905V32.7174L35.4612 27.6446H37.5441V32.6888H38.463V34.3738Z" fill="#5A27F2"/>
<path d="M4.01396 30.5867H0.912503C0.408503 30.5867 0 30.9962 0 31.5013C0 32.0042 0.408503 32.4138 0.912503 32.4138H4.01396C4.51796 32.4138 4.92648 32.0042 4.92648 31.5013C4.92648 30.9962 4.51796 30.5867 4.01396 30.5867Z" fill="#5A27F2"/>
<path d="M62.0865 30.5867H58.9861C58.4821 30.5867 58.0725 30.9962 58.0725 31.5013C58.0725 32.0042 58.4821 32.4138 58.9861 32.4138H62.0865C62.5915 32.4138 63 32.0042 63 31.5013C63 30.9962 62.5915 30.5867 62.0865 30.5867Z" fill="#5A27F2"/>
<path d="M31.4997 -3.62396e-05C30.9957 -3.62396e-05 30.5872 0.409516 30.5872 0.913516V4.01391C30.5872 4.51897 30.9957 4.92749 31.4997 4.92749C32.0048 4.92749 32.4133 4.51897 32.4133 4.01391V0.913516C32.4133 0.409516 32.0048 -3.62396e-05 31.4997 -3.62396e-05Z" fill="#5A27F2"/>
<path d="M31.4997 58.0735C30.9957 58.0735 30.5872 58.4821 30.5872 58.9871V62.0875C30.5872 62.5915 30.9957 63.0011 31.4997 63.0011C32.0048 63.0011 32.4133 62.5915 32.4133 62.0875V58.9871C32.4133 58.4821 32.0048 58.0735 31.4997 58.0735Z" fill="#5A27F2"/>
<path d="M10.5172 9.22576C10.1607 8.86925 9.58246 8.86925 9.22594 9.22576C8.86943 9.58334 8.86943 10.1616 9.22594 10.5181L11.4181 12.7113C11.5974 12.8896 11.8308 12.9777 12.0643 12.9777C12.2988 12.9777 12.5322 12.8896 12.7105 12.7113C13.067 12.3548 13.067 11.7765 12.7105 11.42L10.5172 9.22576Z" fill="#5A27F2"/>
<path d="M51.5815 50.2917C51.225 49.9331 50.6467 49.9331 50.2902 50.2917C49.9337 50.6472 49.9337 51.2255 50.2902 51.582L52.4834 53.7752C52.6617 53.9534 52.8951 54.0425 53.1285 54.0425C53.363 54.0425 53.5954 53.9534 53.7737 53.7752C54.1302 53.4187 54.1302 52.8404 53.7737 52.4839L51.5815 50.2917Z" fill="#5A27F2"/>
<path d="M52.4834 9.22576L50.2902 11.42C49.9337 11.7765 49.9337 12.3548 50.2902 12.7113C50.4685 12.8896 50.7019 12.9777 50.9364 12.9777C51.1698 12.9777 51.4033 12.8896 51.5815 12.7113L53.7737 10.5181C54.1302 10.1616 54.1302 9.58334 53.7737 9.22576C53.4171 8.86925 52.8399 8.86925 52.4834 9.22576Z" fill="#5A27F2"/>
<path d="M11.4181 50.2917L9.22594 52.4839C8.86943 52.8404 8.86943 53.4187 9.22594 53.7752C9.4042 53.9534 9.63764 54.0425 9.87107 54.0425C10.1056 54.0425 10.339 53.9534 10.5172 53.7752L12.7105 51.582C13.067 51.2255 13.067 50.6472 12.7105 50.2917C12.3539 49.9331 11.7757 49.9331 11.4181 50.2917Z" fill="#5A27F2"/>
</svg>
